<?xml version="1.0" standalone="no"?><!DOCTYPE svg PUBLIC "-//W3C//DTD SVG 1.1//EN" "http://www.w3.org/Graphics/SVG/1.1/DTD/svg11.dtd"><svg t="1684306799978" class="icon" viewBox="0 0 1024 1024" version="1.1" xmlns="http://www.w3.org/2000/svg" p-id="7172" xmlns:xlink="http://www.w3.org/1999/xlink" width="200" height="200"><path d="M645.7 799.7c-43.5 32.4-97.4 51.6-155.7 51.6-72.1 0-137.3-29.2-184.5-76.4-47.2-47.2-76.4-112.5-76.4-184.5V463.7H751v126.5c0 5.2-0.1 10.3-0.5 15.4-2.5 42.3-15 82-35.3 116.5-17.8 30.3-41.5 56.6-69.5 77.6z m0 0" fill="#EDDE29" p-id="7173"></path><path d="M489.9 869.7c-74.6 0-144.8-29.1-197.6-81.9-52.8-52.8-81.9-122.9-81.9-197.6V463.7c0-10.2 8.3-18.5 18.5-18.5s18.5 8.3 18.5 18.5v126.5c0 64.8 25.2 125.7 71 171.5s106.7 71 171.5 71c52.6 0 102.6-16.6 144.7-47.9 26.1-19.4 48.1-43.9 64.6-72 19.2-32.7 30.6-70.2 32.8-108.3 0.3-4.6 0.4-9.4 0.4-14.3V463.7c0-10.2 8.3-18.5 18.5-18.5s18.5 8.3 18.5 18.5v126.5c0 5.7-0.2 11.2-0.5 16.5-2.6 43.8-15.6 87-37.8 124.8-19.1 32.5-44.1 60.4-74.3 82.9-48.6 36.2-106.3 55.3-166.9 55.3z m0 0" fill="#56432E" p-id="7174"></path><path d="M750.9 482.2h-522c-10.2 0-18.5-8.3-18.5-18.5s8.3-18.5 18.5-18.5h521.9c10.2 0 18.5 8.3 18.5 18.5s-8.2 18.5-18.4 18.5z" fill="#56432E" p-id="7175"></path><path d="M301.9 635.2c-4.9 0-9.6-1.9-13.1-5.4-3.5-3.5-5.4-8.2-5.4-13.1v-82.9c0-10.2 8.3-18.5 18.5-18.5s18.5 8.3 18.5 18.5v82.9c0 4.9-1.9 9.6-5.4 13.1-3.5 3.5-8.2 5.4-13.1 5.4z m0 0M321.4 718.5c-7 0-13.4-4-16.5-10.3-1.6-3.3-2.9-5.3-4-7.2-3.2-5.2-5.6-9.4-8.2-19.4-1.2-4.7-0.5-9.8 2-14 2.5-4.2 6.5-7.3 11.3-8.5 4.7-1.2 9.8-0.5 14 2 4.2 2.5 7.3 6.5 8.5 11.3 1.4 5.3 1.9 6.1 3.8 9.1 2.1 3.3 4 6.7 5.8 10.3 2.8 5.7 2.5 12.5-0.8 17.9-3.6 5.5-9.5 8.8-15.9 8.8z m0 0" fill="#FFFFFF" p-id="7176"></path><path d="M738.5 706l-13.6-34.7 64-25.1c20.7-8.1 34.2-27.8 34.2-50.1 0-29.7-24.1-53.8-53.8-53.8h-33.1v-37.2h33.1c50.2 0 91.1 40.8 91.1 91.1 0 37.7-22.7 71-57.8 84.8l-64.1 25zM432.7 183.5s-0.3 0.9-0.7 2.5c-0.5 1.7-1.2 4.2-2.1 7.3-0.9 3.1-1.8 7-2.9 11.3-1.1 4.3-2 9.3-2.9 14.5-1.7 10.5-2.8 22.6-1.4 34.4 0.6 5.9 2 11.6 3.9 17 2 5.4 4.6 10.4 8.1 15.1 1.7 2.3 3.5 4.6 5.6 6.7l2.4 2.6 1.9 2.2 3.7 4.3c2.3 2.2 5.4 7.3 7.9 11.3 2.9 4.1 4.3 8.5 6.1 12.7 1.9 4.1 2.5 8.9 3.5 13.2 0.6 4.5 0.9 8.9 0.7 13.2-0.5 4.2-0.6 8.4-1.8 12.1-0.5 1.9-1 3.7-1.5 5.5-0.6 1.8-1.4 3.4-2.1 5-2.7 6.5-6.4 11.6-9.7 15.8-1.7 2.1-3.5 3.9-5 5.5-1.7 1.6-3.3 2.9-4.7 4.2-2.9 2.4-5.4 4-7.1 5.1-1.7 1-2.8 1.6-2.8 1.6-2.5 1.3-5.6 0.3-6.9-2.3-0.7-1.4-0.7-3-0.2-4.3l0.3-0.8s0.1-0.2 0.2-0.5c0.2-0.4 0.5-1 0.8-1.8 0.7-1.6 1.7-3.9 3-6.8 1.1-3 2.4-6.5 3.6-10.5 1.1-4 2.2-8.4 2.5-13 0.6-4.6 0.1-9.3-0.5-13.9-0.1-1.2-0.6-2.3-0.9-3.4-0.3-1.1-0.4-2.3-0.9-3.4s-1-2.3-1.5-3.4c-0.4-1.2-0.8-2.3-1.6-3.4-1.4-2.2-2.4-4.8-4.1-6.5-1.7-2-2.2-3.6-5.3-6.7-2.4-2.6-4.8-5.3-7.2-8-3.2-3.4-6.2-7.1-8.9-11.1-5.3-7.9-9.5-16.8-11.8-25.9-2.4-9-3.1-18.1-2.8-26.6 0.8-17 5.7-31.4 11-42.7 2.6-5.7 5.7-10.5 8.3-14.8 2.7-4.2 5.4-7.6 7.6-10.5 4.5-5.5 7.7-8.4 7.7-8.4 2.1-1.9 5.4-1.7 7.3 0.4 1.2 1.4 1.6 3.2 1.1 4.9l0.1 0.3zM554.8 71.3s-0.5 1.2-1.4 3.5c-1 2.3-2.3 5.8-3.9 10.1-1.7 4.4-3.4 9.8-5.4 15.9-2 6.1-3.8 13.1-5.6 20.6-1.8 7.5-3.2 15.7-4 24.3-0.8 8.5-1.1 17.4-0.3 26.3 0.7 8.9 2.6 17.7 5.6 26 3.1 8.3 7.4 16.2 12.9 23.3 2.8 3.6 5.7 7 9.1 10.2l5.8 5.9 2.8 2.9 3.2 3.6c4.4 4.9 7.9 9.8 11.2 15.1 3.3 5.2 6.2 10.7 8.5 16.5 4.7 11.4 7 23.7 6.6 35.2-0.3 11.5-3 22-6.7 30.7-3.7 8.8-8.4 15.9-12.9 21.7-4.5 5.8-9 10.3-12.9 13.7-3.8 3.5-7.2 5.8-9.5 7.3-2.3 1.6-3.7 2.3-3.7 2.3-1.6 2.1-4.6 2.4-6.7 0.8-1.9-1.5-2.4-4.3-1.1-6.3l1.3-2s0.7-1.1 2-3.1c1.3-2.1 3.2-5.2 5.4-9.2 2.1-4 4.6-8.9 6.9-14.5 2.2-5.7 4.2-12.1 5.5-18.9 1.3-6.9 1.5-14.2 0.7-21.5-0.9-7.3-3.3-14.6-7-21.9-0.9-1.8-1.9-3.6-3.1-5.4-1-1.8-2.3-3.6-3.5-5.4-2.4-3.5-5.5-7.2-8.3-10.2l-2.2-2.4-2.9-2.9-2.9-2.9-2.8-2.9c-4.5-4.4-8.6-9.4-12.4-14.5-7.5-10.4-13.5-22.2-17-34.3-3.6-12.1-4.9-24.5-4.8-36.1 0.3-11.6 2-22.6 4.6-32.5 2.6-9.9 6-18.9 9.5-26.9s7.5-14.9 11-20.9c3.6-6 7.2-10.9 10.1-14.9 6-7.9 10.2-12.1 10.2-12.1 2-2 5.2-2 7.2 0 1.5 1.5 1.8 3.7 1.1 5.5l-0.2 0.3zM694.8 960.2H287.2c-41.2 0-74.7-33.5-74.7-74.8s33.5-74.7 74.7-74.7c10.3 0 18.6 8.3 18.6 18.6s-8.3 18.6-18.6 18.6c-20.7 0-37.5 16.8-37.5 37.5s16.8 37.5 37.5 37.5h407.5c20.7 0 37.5-16.8 37.5-37.5s-16.8-37.5-37.5-37.5c-10.3 0-18.6-8.3-18.6-18.6s8.3-18.6 18.6-18.6c41.2 0 74.7 33.5 74.7 74.7s-33.4 74.8-74.6 74.8z" fill="#56432E" p-id="7177"></path></svg>